<?xml version="1.0" encoding="iso-8859-1"?>
<!-- Uploaded to: SVG Repo, www.svgrepo.com, Generator: SVG Repo Mixer Tools -->
<svg version="1.1" id="Layer_1" xmlns="http://www.w3.org/2000/svg" xmlns:xlink="http://www.w3.org/1999/xlink" 
	 viewBox="0 0 511.996 511.996" xml:space="preserve">
<g>
	<path style="fill:#434A54;" d="M236.338,0H108.339c-5.891,0-10.672,4.766-10.672,10.656s4.781,10.672,10.672,10.672h127.999
		c5.891,0,10.664-4.781,10.664-10.672S242.228,0,236.338,0z"/>
	<path style="fill:#434A54;" d="M405.345,0H277.346c-5.898,0-10.68,4.766-10.68,10.656s4.781,10.672,10.68,10.672h127.999
		c5.875,0,10.656-4.781,10.656-10.672S411.22,0,405.345,0z"/>
</g>
<rect x="67.508" y="21.328" style="fill:#F5F7FA;" width="376.99" height="469.32"/>
<g>
	<path style="fill:#434A54;" d="M96.003,501.324c0,5.891-4.773,10.672-10.664,10.672s-10.672-4.781-10.672-10.672
		s4.781-10.672,10.672-10.672S96.003,495.434,96.003,501.324z"/>
	<path style="fill:#434A54;" d="M437.345,501.324c0,5.891-4.781,10.672-10.688,10.672c-5.875,0-10.656-4.781-10.656-10.672
		s4.781-10.672,10.656-10.672C432.563,490.652,437.345,495.434,437.345,501.324z"/>
</g>
<path style="fill:#656D78;" d="M394.657,85.327c0,5.891-4.766,10.672-10.656,10.672s-10.656-4.781-10.656-10.672
	s4.766-10.672,10.656-10.672S394.657,79.436,394.657,85.327z"/>
<rect x="67.508" y="150.908" style="fill:#5D9CEC;" width="376.99" height="265.09"/>
<g>
	<path style="fill:#656D78;" d="M309.346,85.327c0,5.891-4.781,10.672-10.688,10.672c-5.875,0-10.656-4.781-10.656-10.672
		s4.781-10.672,10.656-10.672C304.564,74.655,309.346,79.436,309.346,85.327z"/>
	<path style="fill:#656D78;" d="M224.002,85.327c0,5.891-4.773,10.672-10.664,10.672s-10.672-4.781-10.672-10.672
		s4.781-10.672,10.672-10.672S224.002,79.436,224.002,85.327z"/>
	<path style="fill:#656D78;" d="M138.667,85.327c0,5.891-4.773,10.672-10.664,10.672c-5.891,0-10.664-4.781-10.664-10.672
		s4.773-10.672,10.664-10.672C133.894,74.655,138.667,79.436,138.667,85.327z"/>
</g>
<path style="fill:#E6E9ED;" d="M448.001,10.656H64.003c-5.891,0-10.664,4.781-10.664,10.672v469.324
	c0,5.891,4.773,10.672,10.664,10.672h383.998c5.891,0,10.656-4.781,10.656-10.672V21.328
	C458.657,15.437,453.892,10.656,448.001,10.656z M437.345,479.997H74.667V31.999h362.678L437.345,479.997L437.345,479.997z"/>
<g>
	<path style="fill:#434A54;" d="M128.003,53.327c-17.672,0-32,14.328-32,32s14.328,32,32,32s32-14.328,32-32
		S145.675,53.327,128.003,53.327z M128.003,95.999c-5.883,0-10.664-4.797-10.664-10.672c0-5.891,4.781-10.672,10.664-10.672
		c5.883,0,10.664,4.781,10.664,10.672C138.667,91.202,133.886,95.999,128.003,95.999z"/>
	<path style="fill:#434A54;" d="M213.338,53.327c-17.68,0-32,14.328-32,32s14.32,32,32,32c17.672,0,32-14.328,32-32
		S231.01,53.327,213.338,53.327z M213.338,95.999c-5.883,0-10.672-4.797-10.672-10.672c0-5.891,4.789-10.672,10.672-10.672
		c5.875,0,10.664,4.781,10.664,10.672C224.002,91.202,219.213,95.999,213.338,95.999z"/>
	<path style="fill:#434A54;" d="M298.658,53.327c-17.656,0-31.992,14.328-31.992,32s14.336,32,31.992,32c17.688,0,32-14.328,32-32
		S316.346,53.327,298.658,53.327z M298.658,95.999c-5.875,0-10.656-4.797-10.656-10.672c0-5.891,4.781-10.672,10.656-10.672
		c5.891,0,10.688,4.781,10.688,10.672C309.346,91.202,304.549,95.999,298.658,95.999z"/>
	<path style="fill:#434A54;" d="M384.001,53.327c-17.672,0-32,14.328-32,32s14.328,32,32,32s32-14.328,32-32
		S401.673,53.327,384.001,53.327z M384.001,95.999c-5.875,0-10.656-4.797-10.656-10.672c0-5.891,4.781-10.672,10.656-10.672
		s10.656,4.781,10.656,10.672C394.657,91.202,389.876,95.999,384.001,95.999z"/>
</g>
<g>
	<rect x="58.188" y="415.998" style="fill:#E6E9ED;" width="386.31" height="21.328"/>
	<rect x="58.188" y="138.658" style="fill:#E6E9ED;" width="386.31" height="21.344"/>
	<path style="fill:#E6E9ED;" d="M298.658,426.653h-85.32c-5.891,0-10.672,4.781-10.672,10.672s4.781,10.672,10.672,10.672h85.32
		c5.906,0,10.688-4.781,10.688-10.672S304.564,426.653,298.658,426.653z"/>
</g>
<polygon style="opacity:0.1;fill:#FFFFFF;enable-background:new    ;" points="264.002,415.997 181.338,415.997 245.338,159.999 
	328.002,159.999 "/>
<path style="fill:#434A54;" d="M405.345,202.654H106.667c-5.891,0-10.664,4.781-10.664,10.672s4.773,10.672,10.664,10.672h298.678
	c5.875,0,10.656-4.781,10.656-10.672S411.22,202.654,405.345,202.654z"/>
</svg>